<svg xmlns="http://www.w3.org/2000/svg" xmlns:xlink="http://www.w3.org/1999/xlink" width="500" zoomAndPan="magnify" viewBox="0 0 375 374.999991" height="500" preserveAspectRatio="xMidYMid meet" version="1.0"><defs><g/><clipPath id="8fd171d981"><path d="M 134.871094 197.023438 L 184.371094 197.023438 L 184.371094 211.273438 L 134.871094 211.273438 Z M 134.871094 197.023438 " clip-rule="nonzero"/></clipPath><clipPath id="236dc92749"><path d="M 180 202 L 184.371094 202 L 184.371094 206 L 180 206 Z M 180 202 " clip-rule="nonzero"/></clipPath><clipPath id="f6aea78153"><path d="M 155 221 L 215 221 L 215 226.863281 L 155 226.863281 Z M 155 221 " clip-rule="nonzero"/></clipPath><clipPath id="6a9ff043b2"><path d="M 134.871094 137.726562 L 184.371094 137.726562 L 184.371094 205.976562 L 134.871094 205.976562 Z M 134.871094 137.726562 " clip-rule="nonzero"/></clipPath><clipPath id="077ae679b7"><path d="M 134.871094 200.769531 L 188.121094 200.769531 L 188.121094 215.019531 L 134.871094 215.019531 Z M 134.871094 200.769531 " clip-rule="nonzero"/></clipPath></defs><g clip-path="url(#8fd171d981)"><path fill="#260acd" d="M 241.328125 195.984375 L 139.726562 195.984375 L 139.726562 142.035156 C 139.726562 141.796875 139.921875 141.601562 140.164062 141.601562 L 240.894531 141.601562 C 241.132812 141.601562 241.328125 141.796875 241.328125 142.035156 Z M 201.664062 206.4375 C 201.144531 206.957031 200.417969 207.285156 199.621094 207.285156 L 181.4375 207.285156 C 179.835938 207.285156 178.542969 205.984375 178.542969 204.386719 C 178.542969 203.589844 178.867188 202.863281 179.390625 202.339844 C 179.914062 201.816406 180.636719 201.492188 181.4375 201.492188 L 199.621094 201.492188 C 201.21875 201.492188 202.511719 202.789062 202.511719 204.386719 C 202.511719 205.1875 202.191406 205.910156 201.664062 206.4375 Z M 240.894531 136.742188 L 140.164062 136.742188 C 137.242188 136.742188 134.867188 139.117188 134.867188 142.035156 L 134.867188 206.121094 C 134.867188 209.039062 137.242188 211.417969 140.164062 211.417969 L 240.894531 211.417969 C 243.8125 211.417969 246.1875 209.039062 246.1875 206.121094 L 246.1875 142.035156 C 246.1875 139.117188 243.8125 136.742188 240.894531 136.742188 " fill-opacity="1" fill-rule="nonzero"/></g><g clip-path="url(#236dc92749)"><path fill="#260acd" d="M 201.054688 204.386719 C 201.054688 204.773438 200.902344 205.132812 200.632812 205.40625 C 200.363281 205.675781 200.003906 205.828125 199.621094 205.828125 L 181.4375 205.828125 C 180.644531 205.828125 180 205.179688 180 204.386719 C 180 204.003906 180.148438 203.644531 180.421875 203.367188 C 180.691406 203.101562 181.050781 202.953125 181.4375 202.953125 L 199.621094 202.953125 C 200.410156 202.953125 201.054688 203.59375 201.054688 204.386719 " fill-opacity="1" fill-rule="nonzero"/></g><g fill="#000000" fill-opacity="1"><g transform="translate(180.652945, 209.438968)"><g><path d="M 46 -8.46875 L 46 -34.921875 L 14.109375 -34.921875 L 14.109375 -42.34375 L 46 -42.34375 L 46 -73.1875 L 53.84375 -65.765625 L 53.84375 -42.25 L 49.875 -38.578125 L 53.84375 -34.8125 L 53.84375 -8.46875 Z M 5.234375 -8.359375 L 5.234375 -64.71875 L 13.078125 -64.71875 L 13.078125 -8.359375 Z M 5.328125 0 L 5.328125 -7.421875 L 53.84375 -7.421875 L 46 0 Z M 5.234375 -65.765625 L 5.234375 -73.1875 L 44.96875 -73.1875 L 44.96875 -65.765625 Z M 5.234375 -65.765625 "/></g></g></g><g clip-path="url(#f6aea78153)"><path fill="#260acd" d="M 214.398438 227.160156 L 155.492188 227.160156 C 156.660156 223.730469 159.917969 221.257812 163.738281 221.257812 L 206.152344 221.257812 C 209.976562 221.257812 213.226562 223.730469 214.398438 227.160156 " fill-opacity="1" fill-rule="nonzero"/></g><path fill="#260acd" d="M 196.15625 219.675781 L 173.734375 219.675781 L 175.9375 213.117188 L 193.949219 213.117188 L 196.15625 219.675781 " fill-opacity="1" fill-rule="nonzero"/><g clip-path="url(#6a9ff043b2)"><path fill="#260acd" d="M 305.433594 232.691406 L 142.652344 232.691406 L 142.652344 146.257812 C 142.652344 145.875 142.96875 145.5625 143.351562 145.5625 L 304.738281 145.5625 C 305.117188 145.5625 305.433594 145.875 305.433594 146.257812 Z M 241.886719 249.4375 C 241.050781 250.273438 239.890625 250.796875 238.609375 250.796875 L 209.476562 250.796875 C 206.914062 250.796875 204.839844 248.714844 204.839844 246.15625 C 204.839844 244.875 205.359375 243.714844 206.199219 242.878906 C 207.035156 242.039062 208.195312 241.519531 209.476562 241.519531 L 238.609375 241.519531 C 241.171875 241.519531 243.246094 243.59375 243.246094 246.15625 C 243.246094 247.4375 242.726562 248.597656 241.886719 249.4375 Z M 304.738281 137.777344 L 143.351562 137.777344 C 138.675781 137.777344 134.867188 141.585938 134.867188 146.257812 L 134.867188 248.933594 C 134.867188 253.609375 138.675781 257.417969 143.351562 257.417969 L 304.738281 257.417969 C 309.414062 257.417969 313.21875 253.609375 313.21875 248.933594 L 313.21875 146.257812 C 313.21875 141.585938 309.414062 137.777344 304.738281 137.777344 " fill-opacity="1" fill-rule="nonzero"/></g><g clip-path="url(#077ae679b7)"><path fill="#260acd" d="M 207.441406 227.660156 L 106.085938 227.660156 L 106.085938 173.84375 C 106.085938 173.605469 106.285156 173.410156 106.523438 173.410156 L 207.007812 173.410156 C 207.246094 173.410156 207.441406 173.605469 207.441406 173.84375 Z M 167.875 238.089844 C 167.355469 238.609375 166.632812 238.933594 165.835938 238.933594 L 147.695312 238.933594 C 146.101562 238.933594 144.808594 237.640625 144.808594 236.046875 C 144.808594 235.246094 145.132812 234.527344 145.65625 234.003906 C 146.175781 233.480469 146.898438 233.160156 147.695312 233.160156 L 165.835938 233.160156 C 167.429688 233.160156 168.722656 234.449219 168.722656 236.046875 C 168.722656 236.84375 168.398438 237.566406 167.875 238.089844 Z M 207.007812 168.5625 L 106.523438 168.5625 C 103.609375 168.5625 101.238281 170.933594 101.238281 173.84375 L 101.238281 237.777344 C 101.238281 240.6875 103.609375 243.058594 106.523438 243.058594 L 207.007812 243.058594 C 209.917969 243.058594 212.289062 240.6875 212.289062 237.777344 L 212.289062 173.84375 C 212.289062 170.933594 209.917969 168.5625 207.007812 168.5625 " fill-opacity="1" fill-rule="nonzero"/></g></svg>